<svg width="222" height="124" viewBox="0 0 222 124" fill="none" xmlns="http://www.w3.org/2000/svg">
      <rect x="0.5" y="0.5" width="196" height="111" rx="23.5" stroke="white"></rect>
      <rect x="2.15" y="2.15" width="192.7" height="107.7" rx="20.85" stroke="white" stroke-width="0.3"></rect>
      <rect x="30.5" y="11.5" width="137" height="88" stroke="white"></rect>
      <circle cx="25" cy="15" r="1.85" stroke="white" stroke-width="0.3"></circle>
      <path d="M218.928 108.56L155.444 45.0765C152.675 42.3078 148.187 42.3078 145.422 45.0765L142.077 48.4171C139.308 51.1867 139.308 55.6754 142.077 58.4398L205.56 121.923C208.33 124.692 212.818 124.692 215.583 121.923L218.923 118.583C221.697 115.818 221.697 111.329 218.928 108.56Z" fill="#F42010"></path>
      <path d="M205.56 45.0766L142.077 108.56C139.308 111.329 139.308 115.819 142.077 118.583L145.417 121.924C148.187 124.692 152.675 124.692 155.44 121.924L218.928 58.4442C221.697 55.6755 221.697 51.1868 218.928 48.4224L215.587 45.0818C212.818 42.3079 208.33 42.3079 205.56 45.0766Z" fill="#F42010"></path>
    </svg>