 <svg width="224" height="121" viewBox="0 0 224 121" fill="none" xmlns="http://www.w3.org/2000/svg"
            style="flex: 1; margin-left: 30px;">
            <path
                d="M170.732 119.944C169.883 120.93 168.416 121.005 167.47 120.111L131.737 86.2901C130.792 85.3956 130.75 83.8904 131.644 82.9451L143.029 70.9149C143.924 69.9697 145.429 69.9286 146.374 70.8226L165.894 89.2962C166.839 90.1908 168.307 90.1155 169.156 89.1292L207.291 44.8199C208.139 43.8336 209.641 43.7209 210.627 44.5701L223.18 55.3743C224.166 56.223 224.279 57.7249 223.43 58.7113L170.732 119.944Z"
                fill="white" />
            <rect x="0.5" y="0.5" width="196" height="111" rx="23.5" stroke="white" />
            <rect x="2.15" y="2.15" width="192.7" height="107.7" rx="20.85" stroke="white" stroke-width="0.3" />
            <rect x="30.5" y="11.5" width="137" height="88" stroke="white" />
            <circle cx="25" cy="15" r="1.85" stroke="white" stroke-width="0.3" />
        </svg>