<?xml version="1.0" standalone="no"?>
<!DOCTYPE svg PUBLIC "-//W3C//DTD SVG 20010904//EN"
 "http://www.w3.org/TR/2001/REC-SVG-20010904/DTD/svg10.dtd">
<svg version="1.0" xmlns="http://www.w3.org/2000/svg"
 width="700.000000pt" height="700.000000pt" viewBox="0 0 700.000000 700.000000"
 preserveAspectRatio="xMidYMid meet">
<metadata>
Created by potrace 1.14, written by Peter Selinger 2001-2017
</metadata>
<g transform="translate(0.000000,700.000000) scale(0.100000,-0.100000)"
fill="#000000" stroke="none">
<path d="M2229 5724 c-30 -25 -65 -55 -78 -66 -13 -11 -143 -121 -290 -245
-146 -124 -291 -247 -321 -273 -48 -41 -298 -254 -355 -301 -11 -10 -72 -61
-136 -116 -63 -54 -169 -143 -234 -198 -65 -55 -131 -112 -148 -127 l-31 -26
89 -99 c50 -54 95 -103 100 -109 40 -43 147 -164 165 -184 12 -14 54 -61 94
-105 40 -44 119 -132 176 -195 56 -63 124 -138 149 -165 25 -28 100 -111 166
-185 66 -74 127 -142 135 -151 40 -43 254 -281 350 -388 41 -46 82 -91 91
-100 8 -9 94 -104 189 -211 96 -107 177 -197 180 -200 3 -3 39 -43 80 -90 41
-46 82 -91 91 -100 9 -8 49 -53 90 -100 41 -46 85 -96 99 -110 14 -14 43 -46
64 -70 34 -39 147 -165 211 -236 11 -12 52 -57 90 -100 39 -43 77 -85 85 -94
8 -8 50 -54 92 -102 l77 -87 48 53 c26 29 82 90 123 136 41 46 82 91 90 100 8
9 51 56 94 106 44 49 85 94 90 99 6 6 49 53 96 105 47 52 101 112 120 134 19
21 40 44 45 50 6 6 49 54 96 106 47 52 99 110 115 129 16 18 40 45 54 60 14
15 59 65 100 111 41 46 82 91 90 100 8 9 49 54 90 100 41 47 84 94 95 106 11
11 40 43 64 70 24 27 87 96 140 154 53 57 121 132 151 165 30 33 73 80 95 104
22 24 51 55 64 70 13 14 66 72 118 128 52 56 102 110 111 121 21 23 195 212
274 297 31 33 67 72 78 85 22 25 171 188 224 245 89 95 191 208 194 214 1 4
-46 50 -105 102 -60 51 -126 110 -147 129 -57 51 -54 49 -146 130 -47 41 -90
80 -96 85 -6 6 -44 39 -84 75 -41 36 -119 105 -175 154 -139 123 -153 135
-215 186 -30 25 -57 47 -60 50 -3 3 -75 65 -160 137 -85 72 -222 188 -304 257
-81 69 -150 126 -153 126 -3 0 -28 -19 -57 -42 -56 -47 -53 -45 -211 -179
-242 -206 -301 -255 -313 -263 -10 -6 -68 37 -148 109 -41 38 -437 371 -444
373 -4 2 -57 -39 -117 -90 -60 -51 -131 -111 -158 -133 -26 -22 -53 -45 -59
-50 -47 -44 -289 -245 -294 -245 -6 0 -104 83 -232 193 -14 12 -81 69 -150
127 -69 58 -136 115 -150 127 -62 54 -85 73 -91 73 -3 0 -30 -21 -60 -46z"/>
</g>
</svg>
